<svg width="580" height="400" xmlns="http://www.w3.org/2000/svg">
 <!-- Created with SVG Editor - http://github.com/mzalive/SVG Editor/ -->

 <g>
  <title>background</title>
  <rect fill="#fff" id="canvas_background" height="402" width="582" y="-1" x="-1"/>
  <g display="none" overflow="visible" y="0" x="0" height="100%" width="100%" id="canvasGrid">
   <rect fill="url(#gridpattern)" stroke-width="0" y="0" x="0" height="100%" width="100%"/>
  </g>
 </g>
 <g>
  <title>Layer 1</title>
  <g stroke="null" id="svg_5">
   <path stroke="null" fill="#ff5815" id="svg_4" d="m495.286132,341.580461l-77.380561,-77.380561c-2.865947,-2.865947 -2.865947,-5.731893 -1.432973,-8.59784c15.762707,-24.360547 24.360547,-53.020014 24.360547,-84.545427c0,-87.411374 -70.215694,-157.627068 -157.627068,-157.627068s-157.627068,70.215694 -157.627068,157.627068s70.215694,157.627068 157.627068,157.627068c31.525414,0 60.18488,-8.59784 84.545427,-24.360547c2.865947,-1.432973 7.164867,-1.432973 8.59784,1.432973l77.380561,77.380561c5.731893,5.731893 14.329733,5.731893 20.061627,0l20.061627,-20.061627c7.164867,-7.164867 7.164867,-15.762707 1.432973,-21.4946zm-210.647081,-70.215694c-55.88596,0 -100.308134,-44.422174 -100.308134,-100.308134s44.422174,-100.308134 100.308134,-100.308134s100.308134,44.422174 100.308134,100.308134s-44.422174,100.308134 -100.308134,100.308134z"/>
  </g>
 </g>
</svg>